<svg id="Capa_1" enable-background="new 0 0 460.634 460.634" height="512" viewBox="0 0 460.634 460.634" width="512" xmlns="http://www.w3.org/2000/svg" xmlns:xlink="http://www.w3.org/1999/xlink"><linearGradient id="lg1"><stop offset="0" stop-color="#20d6de"/><stop offset="1" stop-color="#5e309d"/></linearGradient><linearGradient id="SVGID_1_" gradientTransform="matrix(1 0 0 -1 0 460.866)" gradientUnits="userSpaceOnUse" x1="-23.129" x2="480.128" xlink:href="#lg1" y1="208.548" y2="208.548"/><linearGradient id="SVGID_2_" gradientTransform="matrix(1 0 0 -1 -.001 460.867)" gradientUnits="userSpaceOnUse" x1="-23.132" x2="480.125" xlink:href="#lg1" y1="432.125" y2="432.125"/><linearGradient id="SVGID_3_" gradientTransform="matrix(1 0 0 -1 -.001 460.867)" gradientUnits="userSpaceOnUse" x1="-23.137" x2="480.12" xlink:href="#lg1" y1="443.694" y2="443.694"/><linearGradient id="SVGID_4_" gradientTransform="matrix(1 0 0 -1 .001 460.866)" gradientUnits="userSpaceOnUse" x1="-23.124" x2="480.133" xlink:href="#lg1" y1="382.015" y2="382.015"/><linearGradient id="SVGID_5_" gradientTransform="matrix(1 0 0 -1 0 460.867)" gradientUnits="userSpaceOnUse" x1="-23.13" x2="480.127" xlink:href="#lg1" y1="351.179" y2="351.179"/><linearGradient id="SVGID_6_" gradientTransform="matrix(1 0 0 -1 0 460.866)" gradientUnits="userSpaceOnUse" x1="-23.127" x2="480.13" xlink:href="#lg1" y1="385.878" y2="385.878"/><linearGradient id="SVGID_7_" gradientTransform="matrix(1 0 0 -1 0 460.867)" gradientUnits="userSpaceOnUse" x1="-23.132" x2="480.125" xlink:href="#lg1" y1="227.821" y2="227.821"/><linearGradient id="SVGID_8_" gradientTransform="matrix(1 0 0 -1 0 460.866)" gradientUnits="userSpaceOnUse" x1="-23.129" x2="480.128" xlink:href="#lg1" y1="92.904" y2="92.904"/><linearGradient id="SVGID_9_" gradientTransform="matrix(1 0 0 -1 0 460.866)" gradientUnits="userSpaceOnUse" x1="-23.129" x2="480.128" xlink:href="#lg1" y1="170.001" y2="170.001"/><linearGradient id="SVGID_10_" gradientTransform="matrix(1 0 0 -1 0 460.866)" gradientUnits="userSpaceOnUse" x1="-23.129" x2="480.128" xlink:href="#lg1" y1="131.453" y2="131.453"/><linearGradient id="SVGID_11_" gradientTransform="matrix(1 0 0 -1 .001 460.866)" gradientUnits="userSpaceOnUse" x1="-23.124" x2="480.133" xlink:href="#lg1" y1="301.065" y2="301.065"/><linearGradient id="SVGID_12_" gradientTransform="matrix(1 0 0 -1 0 460.866)" gradientUnits="userSpaceOnUse" x1="-23.128" x2="480.129" xlink:href="#lg1" y1="297.208" y2="297.208"/><linearGradient id="SVGID_13_" gradientTransform="matrix(1 0 0 -1 .202 460.802)" gradientUnits="userSpaceOnUse" x1="-23.179" x2="480.078" xlink:href="#lg1" y1="258.504" y2="258.504"/><linearGradient id="SVGID_14_" gradientTransform="matrix(1 0 0 -1 0 460.866)" gradientUnits="userSpaceOnUse" x1="-23.129" x2="480.128" xlink:href="#lg1" y1="316.485" y2="316.485"/><linearGradient id="SVGID_15_" gradientTransform="matrix(1 0 0 -1 0 460.866)" gradientUnits="userSpaceOnUse" x1="-23.129" x2="480.128" xlink:href="#lg1" y1="393.582" y2="393.582"/><g><g id="Gradient_outline_6_"><path d="m36.767 296.725c-.385.285-1.11.948-1.11.948-23.283 20.068-35.657 44.007-35.657 70.289.055 51.072 41.444 92.461 92.516 92.516 5.668-.006 11.321-.595 16.869-1.758 0 0 1.542-.401 2.313-.586 17.232-4.479 33.131-13.045 46.351-24.972 148.257-127.418 263.332-282.614 264.48-284.202 2.534-3.422 1.815-8.25-1.607-10.784-2.336-1.73-5.447-1.999-8.046-.696-6.707 3.361-27.994 10.794-37.361 1.449-14.07-14.07 10.154-61.855 24.093-82.787 2.361-3.543 1.403-8.33-2.141-10.691-3.183-2.121-7.441-1.587-10.002 1.254-29.004 32.219-66.126 66.573-76.118 67.359-.821-.625-1.398-1.517-1.634-2.521-3.377-10.408 6.314-35.21 13.214-48.394 1.933-3.794.424-8.436-3.369-10.369-2.933-1.494-6.491-.962-8.858 1.326-1.897 1.843-186.505 185.102-256.948 229.987-5.939 3.826-11.614 8.045-16.985 12.632zm259.223-206.566c-2.621 8.47-2.948 17.483-.948 26.12 1.529 5.149 5.109 9.443 9.899 11.873 7.255 3.593 23.083-.594 57.522-33.267-7.394 20.346-10.555 42.241 2.151 54.947 8.474 7.621 20.041 10.812 31.224 8.612-61.796 78.819-129.324 152.972-202.032 221.854 7.455-12.05 15.165-24.124 20.377-30.654 56.119-70.289 58.355-89.432 60.906-111.52 1.111-12.689 4.326-25.104 9.514-36.737 1.678-3.913-.135-8.446-4.048-10.124-.95-.407-1.972-.619-3.006-.624-1.812 0-44.554.678-61.384 59.565-6.746 23.63-19.428 33.545-28.526 37.693 4.785-19.015 11.4-37.523 19.752-55.263 1.907-3.807.367-8.439-3.44-10.346-2.174-1.089-4.733-1.089-6.907 0-4.99 2.198-10.23 3.775-15.604 4.695-15.209 2.228-29.332 9.184-40.368 19.883-13.081 10.902-28.059 19.299-44.184 24.771 62.548-49.735 154.686-138.134 199.102-181.478zm-231.067 207.745c6.636-2.94 13.547-5.215 20.631-6.792 24.415-5.812 47.141-17.228 66.38-33.344 8.949-8.626 20.438-14.141 32.766-15.728l1.843-.401c-7.266 17.916-12.882 36.457-16.776 55.394-.462 2.309.157 4.703 1.681 6.499 1.483 1.866 3.79 2.881 6.168 2.714 1.588-.054 39.142-1.935 53.405-51.848 8.265-28.988 23.461-40.63 34.231-45.256-2.769 8.844-4.596 17.956-5.451 27.184-2.313 19.768-4.302 36.845-57.661 103.687-7.71 9.645-19.721 29.297-29.374 45.048-5.566 9.097-10.794 17.732-12.806 20.292-16.345 21.363-34.424 34.246-53.736 38.286-4.54.723-9.116 1.196-13.708 1.419-41.64.941-76.16-32.052-77.101-73.692-.548-24.241 10.593-47.268 29.941-61.882 6.043-4.61 12.608-8.492 19.559-11.565z" fill="url(#SVGID_1_)"/><path d="m333.771 46.419 46.257-46.257 10.903 10.903-46.257 46.257z" fill="url(#SVGID_2_)"/><path d="m403.159 23.286 23.131-23.131 10.903 10.904-23.131 23.131z" fill="url(#SVGID_3_)"/><path d="m387.435 108.426 61.68-69.389 11.519 10.239-61.68 69.389z" fill="url(#SVGID_4_)"/><path d="m426.293 115.802 23.131-23.131 10.903 10.903-23.131 23.131z" fill="url(#SVGID_5_)"/><path d="m195.003 123.504 107.935-107.935 10.904 10.903-107.936 107.935z" fill="url(#SVGID_6_)"/><path d="m341.048 278.178 84.804-100.225 11.771 9.96-84.804 100.224z" fill="url(#SVGID_7_)"/><path d="m92.516 429.639c34.063 0 61.677-27.614 61.677-61.677s-27.614-61.677-61.677-61.677-61.677 27.614-61.677 61.677c.038 34.048 27.629 61.639 61.677 61.677zm0-107.935c25.505-.043 46.215 20.599 46.258 46.104.008 4.978-.788 9.925-2.359 14.648l-6.453-10.794c-1.747-2.908-5.19-4.332-8.481-3.508l-19.027 4.749 5.32-26.598c.833-4.176-1.877-8.236-6.053-9.068-1.115-.222-2.265-.195-3.368.079l-26.606 6.653-10.254-10.223c8.477-7.742 19.542-12.037 31.023-12.042zm-40.661 24.208 12.081 12.081c1.909 1.921 4.691 2.692 7.316 2.028l19.027-4.749-5.32 26.598c-.833 4.176 1.877 8.236 6.053 9.068 1.115.222 2.265.195 3.368-.079l25.295-6.33 8.033 13.376c-16.656 19.372-45.862 21.574-65.234 4.918-16.439-14.135-20.854-37.795-10.619-56.911z" fill="url(#SVGID_8_)"/><path d="m138.774 283.156h15.419v15.419h-15.419z" fill="url(#SVGID_9_)"/><path d="m169.613 321.704h15.419v15.419h-15.419z" fill="url(#SVGID_10_)"/><path d="m233.549 177.477 46.256-46.256 10.903 10.903-46.256 46.256z" fill="url(#SVGID_11_)"/><path d="m287.514 177.481 38.548-38.548 10.903 10.903-38.548 38.548z" fill="url(#SVGID_12_)"/><path d="m294.825 224.177 46.26-53.971 11.702 10.03-46.26 53.971z" fill="url(#SVGID_13_)"/><path d="m138.774 144.381c0 12.774 10.355 23.129 23.129 23.129s23.129-10.355 23.129-23.129-10.355-23.129-23.129-23.129-23.129 10.356-23.129 23.129zm30.839 0c0 4.258-3.452 7.71-7.71 7.71s-7.71-3.452-7.71-7.71 3.452-7.71 7.71-7.71 7.71 3.452 7.71 7.71z" fill="url(#SVGID_14_)"/><path d="m200.452 67.285c0-12.774-10.355-23.129-23.129-23.129s-23.129 10.355-23.129 23.129 10.355 23.129 23.129 23.129c12.773 0 23.129-10.356 23.129-23.129zm-23.129 7.709c-4.258 0-7.71-3.452-7.71-7.71s3.452-7.71 7.71-7.71 7.71 3.452 7.71 7.71-3.452 7.71-7.71 7.71z" fill="url(#SVGID_15_)"/><path d="m316.097 367.962c0 12.774 10.355 23.129 23.129 23.129s23.129-10.355 23.129-23.129-10.355-23.129-23.129-23.129-23.129 10.355-23.129 23.129zm30.838 0c0 4.258-3.452 7.71-7.71 7.71s-7.71-3.452-7.71-7.71 3.452-7.71 7.71-7.71 7.71 3.452 7.71 7.71z" fill="url(#SVGID_8_)"/></g></g></svg>